HIERARCHY
ROOT root
{
	OFFSET 0.000000 0.000000 0.000000
	CHANNELS 6 Xposition Yposition Zposition Zrotation Yrotation Xrotation
	JOINT lhip
	{
		OFFSET 0.058581 -0.082280 -0.017664
		CHANNELS 3 Zrotation Yrotation Xrotation
		JOINT lknee
		{
			OFFSET 0.043451 -0.386469 0.008037
			CHANNELS 3 Zrotation Yrotation Xrotation
			JOINT lankle
			{
				OFFSET -0.014790 -0.426874 -0.037428
				CHANNELS 3 Zrotation Yrotation Xrotation
				JOINT ltoe
				{
					OFFSET 0.041054 -0.060286 0.122042
					CHANNELS 3 Zrotation Yrotation Xrotation
					End Site
					{
						OFFSET 0.000000 0.000000 0.000000
					}
				}
			}
		}
	}
	JOINT rhip
	{
		OFFSET -0.060310 -0.090513 -0.013543
		CHANNELS 3 Zrotation Yrotation Xrotation
		JOINT rknee
		{
			OFFSET -0.043257 -0.383688 -0.004843
			CHANNELS 3 Zrotation Yrotation Xrotation
			JOINT rankle
			{
				OFFSET 0.019056 -0.420046 -0.034562
				CHANNELS 3 Zrotation Yrotation Xrotation
				JOINT rtoe
				{
					OFFSET -0.034840 -0.062106 0.130323
					CHANNELS 3 Zrotation Yrotation Xrotation
					End Site
					{
						OFFSET 0.000000 0.000000 0.000000
					}
				}
			}
		}
	}
	JOINT lowerback
	{
		OFFSET 0.004439 0.124404 -0.038385
		CHANNELS 3 Zrotation Yrotation Xrotation
		JOINT upperback
		{
			OFFSET 0.004488 0.137956 0.026820
			CHANNELS 3 Zrotation Yrotation Xrotation
			JOINT chest
			{
				OFFSET -0.002265 0.056032 0.002855
				CHANNELS 3 Zrotation Yrotation Xrotation
				JOINT lowerneck
				{
					OFFSET -0.013390 0.211636 -0.033468
					CHANNELS 3 Zrotation Yrotation Xrotation
					JOINT upperneck
					{
						OFFSET 0.010113 0.088937 0.050410
						CHANNELS 3 Zrotation Yrotation Xrotation
						End Site
						{
							OFFSET 0.000000 0.000000 0.000000
						}
					}
				}
				JOINT lclavicle
				{
					OFFSET 0.071702 0.114000 -0.018898
					CHANNELS 3 Zrotation Yrotation Xrotation
					JOINT lshoulder
					{
						OFFSET 0.122921 0.045205 -0.019046
						CHANNELS 3 Zrotation Yrotation Xrotation
						JOINT lelbow
						{
							OFFSET 0.255332 -0.015649 -0.022946
							CHANNELS 3 Zrotation Yrotation Xrotation
							JOINT lwrist
							{
								OFFSET 0.265709 0.012698 -0.007375
								CHANNELS 3 Zrotation Yrotation Xrotation
								End Site
								{
									OFFSET 0.000000 0.000000 0.000000
								}
							}
						}
					}
				}
				JOINT rclavicle
				{
					OFFSET -0.082954 0.112472 -0.023707
					CHANNELS 3 Zrotation Yrotation Xrotation
					JOINT rshoulder
					{
						OFFSET -0.113228 0.046853 -0.008472
						CHANNELS 3 Zrotation Yrotation Xrotation
						JOINT relbow
						{
							OFFSET -0.260127 -0.014369 -0.031269
							CHANNELS 3 Zrotation Yrotation Xrotation
							JOINT rwrist
							{
								OFFSET -0.269108 0.006794 -0.006027
								CHANNELS 3 Zrotation Yrotation Xrotation
								End Site
								{
									OFFSET 0.000000 0.000000 0.000000
								}
							}
						}
					}
				}
			}
		}
	}
}
MOTION
Frames: 8
Frame Time: 0.033333
0.029068 0.223780 1.009703 89.245418 -2.180731 87.054041 4.005549 0.676908 3.919265 -2.577342 2.912556 1.360437 -1.069621 8.910449 -1.001658 0.000000 -0.000000 0.000000 -3.338952 -5.943661 0.451637 0.028477 -6.724187 8.720923 3.714696 -6.238524 -5.809859 0.000000 -0.000000 0.000000 0.305036 1.532063 8.259963 0.567467 -1.417005 4.715369 -1.667356 1.934157 1.090542 -0.726644 1.556618 -1.725841 1.179702 -1.006309 15.274095 -17.952624 2.620286 1.889878 -49.342255 -3.302827 13.670404 176.238353 -67.554848 -151.371141 -1.665410 -11.513385 -32.434536 17.896344 4.111826 0.384953 54.192836 8.846615 17.416128 -144.272667 69.391036 -106.163386 22.495046 -2.588903 24.322255 
0.030069 0.222839 1.009403 89.184130 -2.263040 87.133029 3.999839 0.642324 3.875324 -2.635169 2.875094 1.404693 -1.096470 9.067274 -1.068039 0.000000 -0.000000 0.000000 -3.343614 -5.744684 0.373153 0.033231 -6.617595 8.850753 4.000178 -6.579329 -5.967709 0.000000 -0.000000 0.000000 0.216582 1.480679 7.957706 0.534110 -1.373919 4.761848 -1.686230 2.016823 1.136466 -0.679066 1.326630 -1.751236 1.295208 -0.879990 15.303367 -17.776127 2.605403 1.994760 -49.569916 -3.424393 13.636244 175.879332 -67.396170 -150.740410 -1.596032 -11.210086 -32.799098 17.876670 4.217817 0.424182 54.315210 8.896842 17.506849 -143.888330 69.183515 -105.838164 22.595849 -2.680722 24.360376 
0.031247 0.222132 1.009185 89.167747 -2.300856 87.009350 3.983485 0.670078 4.082446 -2.610121 2.862362 1.430372 -1.058581 9.066271 -1.124111 0.000000 -0.000000 0.000000 -3.388917 -5.769030 0.552344 0.056527 -6.605436 8.927086 4.000686 -6.515496 -6.075896 0.000000 -0.000000 0.000000 0.230997 1.489975 7.889419 0.527615 -1.370914 4.852939 -1.688300 1.998139 1.115227 -0.671639 1.227371 -1.723240 1.269745 -0.856896 15.325100 -17.813313 2.585101 2.001736 -49.797026 -3.471850 13.622864 175.580028 -67.409822 -150.341625 -1.555265 -11.106401 -32.762489 17.861032 4.287796 0.416043 54.359961 8.947898 17.470481 -143.864583 69.182859 -105.762801 22.541599 -2.591199 24.390446 
0.032687 0.221319 1.008887 89.257754 -2.340915 86.815101 3.975519 0.624752 4.283021 -2.567112 2.796827 1.600381 -1.040641 9.022787 -1.253968 0.000000 -0.000000 0.000000 -3.398420 -5.752627 0.810605 0.024154 -6.641879 9.031763 3.974284 -6.557288 -6.245942 0.000000 -0.000000 0.000000 0.230810 1.503890 7.793069 0.559532 -1.425801 5.099310 -1.663484 1.905055 1.080707 -0.685024 1.179096 -1.535576 1.250696 -0.908147 15.335631 -17.914177 2.541072 2.034059 -50.089359 -3.381273 13.673157 175.540063 -67.475462 -150.317401 -1.309113 -11.024710 -32.648826 17.871580 4.241098 0.468426 54.461535 9.001047 17.496276 -144.013562 69.293103 -105.976655 22.286736 -2.670695 24.456316 
0.033554 0.220744 1.008736 89.236869 -2.336717 86.741038 4.003565 0.693778 4.380515 -2.545985 2.775668 1.677183 -1.126462 9.086608 -1.409697 0.000000 -0.000000 0.000000 -3.380971 -5.749620 0.895256 0.029782 -6.613489 9.120166 3.892247 -6.535622 -6.363716 0.000000 -0.000000 0.000000 0.288222 1.456009 7.702889 0.569946 -1.431703 5.209548 -1.689284 1.913499 1.132196 -0.681483 1.223998 -1.465841 1.210412 -0.856263 15.346655 -18.019164 2.599479 2.033200 -50.261169 -3.223436 13.751231 175.596551 -67.419363 -150.320332 -1.238393 -10.838083 -32.588735 17.879069 4.129801 0.414993 54.631858 9.029449 17.555973 -144.325338 69.408545 -106.228366 22.235879 -2.836811 24.571191 
0.034734 0.219970 1.008519 89.193063 -2.350530 86.707946 4.049608 0.752988 4.514965 -2.589542 2.762299 1.655132 -1.080714 9.103698 -1.461938 0.000000 -0.000000 0.000000 -3.367538 -5.760487 0.953110 0.034818 -6.592388 9.233573 3.877761 -6.504223 -6.453564 0.000000 -0.000000 0.000000 0.260680 1.447773 7.620247 0.603675 -1.389781 5.190598 -1.639761 1.976847 1.160992 -0.681238 1.100285 -1.334134 1.157713 -0.844862 15.369687 -17.961886 2.805994 1.998769 -50.839335 -3.177005 13.871889 176.442527 -67.584885 -151.391499 -1.509753 -10.633986 -32.323365 17.865892 3.911980 0.466618 54.902331 8.823168 17.651234 -144.568626 69.487791 -106.624240 22.241685 -2.887919 24.871664 
0.035873 0.219259 1.008333 89.198518 -2.384580 86.589386 4.055541 0.801227 4.705366 -2.586830 2.732991 1.690810 -1.073273 9.057816 -1.511256 0.000000 -0.000000 0.000000 -3.360418 -5.746513 1.097802 -0.022754 -6.635420 9.358320 3.918113 -6.504678 -6.540722 0.000000 -0.000000 0.000000 0.254336 1.383144 7.573626 0.617905 -1.407267 5.361362 -1.685396 2.016854 1.193929 -0.650750 1.110297 -1.325156 1.212063 -0.860369 15.307066 -18.145667 2.999901 2.068144 -50.904031 -3.108281 13.796567 177.022604 -67.789446 -151.703001 -1.303782 -11.005098 -32.403066 18.020293 3.792782 0.595671 55.050645 8.696720 17.655847 -145.012588 69.567487 -106.853142 22.359885 -3.075669 24.922846 
0.036612 0.218555 1.008102 89.203783 -2.402270 86.505169 4.064579 0.679850 4.793014 -2.586738 2.761351 1.811329 -1.011009 9.041368 -1.553887 0.000000 -0.000000 0.000000 -3.344881 -5.674822 1.183977 -0.039177 -6.539134 9.438442 3.853157 -6.546012 -6.802611 0.000000 -0.000000 0.000000 0.211909 1.389867 7.509104 0.657233 -1.472017 5.668529 -1.631843 2.008703 1.161758 -0.651994 1.037879 -1.368466 1.194750 -0.853696 15.338899 -18.180141 3.061640 2.158354 -51.404465 -2.793885 13.903480 177.344655 -67.601376 -152.039651 -1.604107 -10.624198 -31.877361 18.072121 3.814578 0.698338 55.181870 8.491041 17.687453 -145.328109 69.579172 -107.108305 22.614758 -3.518729 25.462477 
